<svg width="32" height="32" viewBox="0 0 32 32" fill="none" xmlns="http://www.w3.org/2000/svg">
<path fill-rule="evenodd" clip-rule="evenodd" d="M3.98962 8.0744C4.37662 8.3084 4.45462 8.7734 4.30012 9.0839C3.91162 9.7829 3.60112 10.4804 3.36862 11.1794C2.28113 14.1299 2.28113 17.4674 3.44662 20.5708C3.67912 21.1918 3.98962 21.8128 4.30012 22.4338C4.45462 22.7443 4.37662 23.2108 3.98962 23.4433C3.83362 23.5213 3.75712 23.5213 3.60112 23.5213C3.36862 23.5213 3.13612 23.3653 2.98012 23.0548C2.59163 22.3558 2.20463 21.6583 1.97063 20.9593C0.728634 17.6999 0.652135 13.9739 1.89413 10.6364C2.20463 9.8609 2.59163 9.0839 2.98012 8.3849C3.13612 7.9979 3.60112 7.9199 3.98962 8.0744ZM14.3906 12.5774L19.3571 15.0599C19.5896 15.2159 19.7456 15.4484 19.7456 15.6044C19.7456 15.9149 19.5896 16.1474 19.3571 16.3019L14.3906 18.7859C14.3126 18.8639 14.1566 18.8639 14.0801 18.8639C13.9241 18.8639 13.8461 18.8639 13.6916 18.7859C13.4591 18.6314 13.3031 18.3974 13.3031 18.1649V13.1984C13.3031 12.9644 13.4591 12.7319 13.6916 12.5774C13.8461 12.4994 14.1566 12.4994 14.3906 12.5774ZM12.2171 10.0154H19.7456C21.5305 10.0154 23.005 11.4899 23.005 13.2749V18.2429C23.005 20.0279 21.5305 21.5023 19.7456 21.5023H12.2171C10.4321 21.5023 8.9561 20.0279 8.9561 18.2429V13.2749C8.9561 11.4899 10.4321 10.0154 12.2171 10.0154ZM7.7156 11.1014C7.9481 10.7144 7.7921 10.3259 7.4816 10.0934C7.09461 9.8609 6.62811 10.0154 6.39561 10.4039C5.54211 12.0329 4.99762 13.8959 4.99762 15.7589C4.99762 17.6219 5.46411 19.4849 6.39561 21.1153C6.55011 21.3478 6.78411 21.5023 7.01661 21.5023C7.17111 21.5023 7.24911 21.5023 7.4051 21.4258C7.7921 21.1918 7.8701 20.8048 7.7156 20.4163C6.16311 17.5439 6.16311 13.9739 7.7156 11.1014ZM24.325 11.1014C24.0925 10.7144 24.247 10.3259 24.6355 10.0934C24.946 9.8609 25.411 10.0154 25.645 10.3259C26.575 11.9564 27.0415 13.8194 27.0415 15.6809C27.0415 17.5439 26.575 19.4069 25.645 21.0373C25.567 21.2698 25.2565 21.4258 25.024 21.4258C24.868 21.4258 24.7135 21.4258 24.6355 21.3478C24.247 21.1918 24.0925 20.7268 24.325 20.3383C25.9555 17.5439 25.9555 13.9739 24.325 11.1014ZM30.0685 10.4804C29.836 9.7829 29.4475 9.0839 29.059 8.3849C28.8265 7.9979 28.3615 7.9199 28.051 8.0744C27.6625 8.3084 27.5845 8.7734 27.7405 9.0839C28.051 9.7049 28.3615 10.3259 28.594 10.9469C29.68 13.9739 29.758 17.2334 28.672 20.2603C28.438 20.9593 28.1275 21.6583 27.7405 22.2793C27.5065 22.6663 27.6625 23.1328 28.051 23.2873C28.2055 23.3653 28.2835 23.3653 28.438 23.3653C28.672 23.3653 28.9825 23.2108 29.059 22.9768C29.4475 22.2793 29.836 21.5023 30.0685 20.7268C31.3105 17.4674 31.3105 13.8194 30.0685 10.4804Z" fill="#0079D0"/>
</svg>
