<svg width="32" height="32" viewBox="0 0 32 32" fill="none" xmlns="http://www.w3.org/2000/svg">
<g clip-path="url(#clip0_1815_3047)">
<path d="M16.106 6.79688C12.79 6.79688 10.1021 9.48485 10.1021 12.8008C10.1021 16.1168 12.79 18.8047 16.106 18.8047C19.4213 18.8047 22.1093 16.1168 22.1093 12.8008V12.7928C22.1053 9.48018 19.4186 6.79688 16.106 6.79688ZM19.4693 11.5542C19.4139 11.6628 19.3393 11.7602 19.2493 11.8422V11.8502L16.6713 15.2921C16.0887 16.0054 15.0453 16.1268 14.314 15.5668L14.196 15.4648L12.852 14.1288C12.4487 13.7535 12.426 13.1221 12.8014 12.7181C13.1767 12.3148 13.808 12.2915 14.212 12.6675L14.2667 12.7141L15.32 13.7828L17.6773 10.6395C17.93 10.1448 18.536 9.94817 19.0306 10.2008C19.5253 10.4535 19.7219 11.0595 19.4693 11.5542Z" fill="#F24E49"/>
<path d="M28.0001 0.45166H4.21236C2.00372 0.45166 0.212402 2.24231 0.212402 4.45162V8.86023V17.1181V21.5268C0.212402 23.7361 2.00372 25.5267 4.21236 25.5267H13.4069C13.4269 25.5694 13.4396 25.616 13.4396 25.6667V27.9067C13.4476 28.0787 13.3183 28.2254 13.1463 28.24C11.4756 28.4234 9.83563 28.8227 8.26631 29.4267C7.58165 29.6967 7.24566 30.4713 7.51632 31.1567C7.71965 31.6713 8.21965 32.0066 8.77297 32H23.4395C24.1761 32.0093 24.7808 31.42 24.7901 30.6833C24.7968 30.13 24.4615 29.63 23.9461 29.4267C22.3775 28.8227 20.7375 28.4234 19.0662 28.24C18.8949 28.2254 18.7655 28.0787 18.7729 27.9067V25.6667C18.7729 25.616 18.7862 25.5694 18.8062 25.5267H28.0001C30.2094 25.5267 32 23.7361 32 21.5268V17.1181V8.86023V4.45162C32 2.24231 30.2094 0.45166 28.0001 0.45166ZM29.3334 8.86023V17.1181V21.5268C29.3334 22.2634 28.7367 22.8601 28.0001 22.8601H4.21236C3.47637 22.8601 2.87904 22.2634 2.87904 21.5268V17.1181V8.86023V4.45162C2.87904 3.71562 3.47637 3.1183 4.21236 3.1183H28.0001C28.7367 3.1183 29.3334 3.71562 29.3334 4.45162V8.86023Z" fill="#0051FF"/>
</g>
<defs>
<clipPath id="clip0_1815_3047">
<rect width="31.9999" height="32" fill="white"/>
</clipPath>
</defs>
</svg>
