<svg width="32" height="32" viewBox="0 0 32 32" fill="none" xmlns="http://www.w3.org/2000/svg">
<g clip-path="url(#clip0_1815_3280)">
<path d="M27.0907 30.602C26.37 30.6053 25.6993 30.2307 25.326 29.6133L22.1113 24.66C21.9827 24.462 21.762 24.342 21.526 24.34H15.266C14.1147 24.34 13.182 23.4067 13.182 22.2553V22.254V11.1273C13.182 9.976 14.114 9.042 15.2653 9.04133C16.4173 9.03933 17.3527 9.972 17.354 11.1233V11.1273V12.8653C17.354 13.0573 17.5093 13.2133 17.7013 13.2133H17.7027H22.2247C23.3767 13.214 24.31 14.148 24.31 15.3C24.31 16.452 23.3767 17.3873 22.2247 17.388H17.7027C17.5113 17.3867 17.3567 17.5407 17.354 17.7313V17.7347V19.474C17.354 19.858 17.6647 20.1693 18.0493 20.1693H21.4867C23.1853 20.1487 24.7687 21.0187 25.6627 22.4613L28.862 27.4147L28.87 27.4287C29.4707 28.402 29.1687 29.6787 28.1947 30.2793C27.8727 30.4887 27.498 30.6007 27.116 30.6007L27.0907 30.602ZM11.792 3.47867C11.7893 1.55867 13.3453 0.00133333 15.2653 0H15.2713C17.192 0 18.7487 1.55667 18.7487 3.47667V3.47867C18.7487 5.39933 17.192 6.956 15.2713 6.956C13.3513 6.956 11.7947 5.39933 11.7947 3.48V3.47867H11.792Z" fill="#0051FF"/>
<path d="M10.2895 31.8548C7.55347 31.3601 5.30147 29.4188 4.40813 26.7854C3.05013 22.7854 5.19147 18.4408 9.19213 17.0828L9.1928 17.0821C9.36147 17.0154 9.54014 16.9821 9.7208 16.9834C10.4888 16.9908 11.1048 17.6194 11.0968 18.3874V18.3894C11.1275 19.0161 10.7341 19.5861 10.1375 19.7801C9.14814 20.1394 8.30213 20.8094 7.7248 21.6901C6.2588 23.9334 6.8888 26.9401 9.13147 28.4061L9.13547 28.4094C11.3781 29.8761 14.3855 29.2468 15.8515 27.0048L15.8541 27.0014C16.1048 26.6341 16.5241 26.4194 16.9681 26.4308C17.2748 26.4228 17.5755 26.5181 17.8221 26.7001C18.4415 27.1541 18.5755 28.0241 18.1221 28.6434C16.6881 30.7434 14.3095 32.0001 11.7668 32.0001C11.2715 31.9994 10.7761 31.9508 10.2895 31.8548Z" fill="#F24E49"/>
</g>
<defs>
<clipPath id="clip0_1815_3280">
<rect width="32" height="32" fill="white"/>
</clipPath>
</defs>
</svg>
