<svg width="32" height="32" viewBox="0 0 32 32" fill="none" xmlns="http://www.w3.org/2000/svg">
<path d="M32 5.99984C32 4.15917 30.5073 2.6665 28.6667 2.6665H3.33333C1.49267 2.6665 0 4.15917 0 5.99984V25.9998C0 27.8405 1.49267 29.3332 3.33333 29.3332H28.6667C30.5073 29.3332 32 27.8405 32 25.9998V5.99984ZM27.3333 7.99984C27.7013 7.99984 28 8.2985 28 8.6665V23.3332C28 23.7012 27.7013 23.9998 27.3333 23.9998H4.66667C4.29867 23.9998 4 23.7012 4 23.3332V8.6665C4 8.2985 4.29867 7.99984 4.66667 7.99984H27.3333Z" fill="#0051FF"/>
<path d="M20.6433 14.7587L14.422 11.1667C13.4666 10.6153 12.272 11.3047 12.272 12.4087V19.592C12.272 20.696 13.4666 21.3853 14.422 20.834L20.6433 17.242C21.5993 16.69 21.5993 15.3107 20.6433 14.7587Z" fill="#F24E49"/>
</svg>
